<svg width="100" height="55" viewBox="0 0 200 110" fill="none">
  <rect width="200" height="110" rx="4" fill="#111010"/>
  <path d="M26.0891 22.7V20H54.4891C61.0891 20 66.1224 21.6667 69.5891 25C73.0557 28.2667 74.7891 32.6333 74.7891 38.1V41C74.7891 46.4667 73.0557 50.8667 69.5891 54.2C66.1224 57.5333 61.0891 59.2 54.4891 59.2H42.4891V79.9C42.4891 82.2333 42.5891 83.6333 42.7891 84.1C42.9891 84.5 43.6224 84.7333 44.6891 84.8L52.1891 85.4V88H26.0891V85.4L31.5891 84.8C32.6557 84.6667 33.2891 84.4 33.4891 84C33.6891 83.6 33.7891 82.2333 33.7891 79.9V28.1C33.7891 25.7667 33.6891 24.4 33.4891 24C33.2891 23.6 32.6557 23.3333 31.5891 23.2L26.0891 22.7ZM54.4891 23.2H42.4891V56H54.4891C61.8891 56 65.5891 51.4667 65.5891 42.4V36.7C65.5891 27.7 61.8891 23.2 54.4891 23.2Z" fill="#F7F7F7"/>
  <path d="M181.521 85.4V88H157.421V85.4L162.921 84.8C163.987 84.6667 164.621 84.4 164.821 84C165.021 83.6 165.121 82.2333 165.121 79.9V55.3H134.921V79.9C134.921 82.2333 135.021 83.6 135.221 84C135.421 84.4 136.054 84.6667 137.121 84.8L142.621 85.4V88H118.521V85.4L124.021 84.8C125.087 84.6667 125.721 84.4 125.921 84C126.121 83.6 126.221 82.2333 126.221 79.9V28.1C126.221 25.7667 126.121 24.4 125.921 24C125.721 23.6 125.087 23.3333 124.021 23.2L118.521 22.7V20H142.621V22.7L137.121 23.2C136.054 23.3333 135.421 23.6 135.221 24C135.021 24.4 134.921 25.7667 134.921 28.1V52.1H165.121V28.1C165.121 25.7667 165.021 24.4 164.821 24C164.621 23.6 163.987 23.3333 162.921 23.2L157.421 22.7V20H181.521V22.7L176.021 23.2C174.954 23.3333 174.321 23.6 174.121 24C173.921 24.4 173.821 25.7667 173.821 28.1V79.9C173.821 82.2333 173.921 83.6 174.121 84C174.321 84.4 174.954 84.6667 176.021 84.8L181.521 85.4Z" fill="#F7F7F7"/>
  <line x1="100.5" x2="100.5" y2="110" stroke="#6B6B6B"/>
  <rect x="92" y="55.4853" width="12" height="12" transform="rotate(-45 92 55.4853)" fill="#F7F7F7"/>
</svg>